<?xml version="1.0" encoding="utf-8"?>
<!-- Generator: Adobe Illustrator 25.1.0, SVG Export Plug-In . SVG Version: 6.00 Build 0)  -->
<svg version="1.1" id="Layer_1" xmlns="http://www.w3.org/2000/svg" xmlns:xlink="http://www.w3.org/1999/xlink" x="0px" y="0px"
	 viewBox="0 0 48 48" style="enable-background:new 0 0 48 48;" xml:space="preserve">
<style type="text/css">
	.st0{fill:#2F220D;}
	.st1{fill:#161514;}
</style>
<path class="st0" d="M24,0C10.75,0,0,11.02,0,24.61c0,10.87,6.88,20.1,16.41,23.35c1.2,0.23,1.64-0.53,1.64-1.18
	c0-0.59-0.02-2.53-0.03-4.58c-6.68,1.49-8.09-2.9-8.09-2.9c-1.09-2.84-2.66-3.6-2.66-3.6c-2.18-1.53,0.16-1.5,0.16-1.5
	c2.41,0.17,3.68,2.54,3.68,2.54c2.14,3.76,5.61,2.67,6.98,2.05c0.22-1.59,0.84-2.68,1.52-3.29c-5.33-0.62-10.93-2.73-10.93-12.16
	c0-2.69,0.94-4.88,2.47-6.6c-0.25-0.62-1.07-3.12,0.23-6.51c0,0,2.02-0.66,6.6,2.52c1.91-0.55,3.97-0.82,6.01-0.83
	c2.04,0.01,4.09,0.28,6.01,0.83c4.58-3.18,6.59-2.52,6.59-2.52c1.31,3.39,0.48,5.89,0.24,6.51c1.54,1.72,2.47,3.92,2.47,6.6
	c0,9.45-5.61,11.53-10.96,12.14c0.86,0.76,1.63,2.26,1.63,4.56c0,3.29-0.03,5.94-0.03,6.75c0,0.65,0.43,1.42,1.65,1.18
	C41.13,44.7,48,35.48,48,24.61C48,11.02,37.25,0,24,0z"/>
<path class="st1" d="M9.16,35.16c-0.05,0.12-0.24,0.16-0.41,0.07c-0.17-0.08-0.27-0.24-0.22-0.37c0.05-0.12,0.24-0.16,0.41-0.08
	C9.12,34.87,9.22,35.04,9.16,35.16z"/>
<path class="st1" d="M10.13,36.26c-0.11,0.11-0.34,0.06-0.49-0.11c-0.16-0.17-0.19-0.4-0.07-0.51c0.12-0.11,0.33-0.06,0.49,0.11
	C10.22,35.93,10.25,36.15,10.13,36.26z"/>
<path class="st1" d="M11.08,37.67c-0.15,0.1-0.39,0.01-0.54-0.21c-0.15-0.22-0.15-0.48,0-0.58c0.15-0.1,0.39-0.01,0.54,0.2
	C11.23,37.3,11.23,37.56,11.08,37.67z"/>
<path class="st1" d="M12.37,39.02c-0.13,0.15-0.41,0.11-0.62-0.09c-0.21-0.2-0.27-0.48-0.14-0.62c0.13-0.15,0.41-0.11,0.62,0.09
	C12.45,38.6,12.51,38.88,12.37,39.02z"/>
<path class="st1" d="M14.15,39.81c-0.06,0.19-0.33,0.28-0.6,0.2c-0.27-0.08-0.45-0.31-0.39-0.5c0.06-0.19,0.33-0.28,0.6-0.2
	C14.03,39.39,14.21,39.62,14.15,39.81z"/>
<path class="st1" d="M16.12,39.96c0.01,0.2-0.22,0.37-0.51,0.37c-0.29,0.01-0.52-0.16-0.52-0.35c0-0.2,0.22-0.37,0.51-0.37
	C15.88,39.59,16.12,39.76,16.12,39.96z"/>
<path class="st1" d="M17.94,39.64c0.03,0.2-0.16,0.4-0.45,0.45c-0.28,0.05-0.54-0.07-0.57-0.26c-0.03-0.2,0.17-0.4,0.44-0.45
	C17.65,39.32,17.9,39.44,17.94,39.64z"/>
</svg>
