<?xml version="1.0" encoding="utf-8"?>
<!-- Generator: Adobe Illustrator 25.1.0, SVG Export Plug-In . SVG Version: 6.00 Build 0)  -->
<svg version="1.1" id="Layer_1" xmlns="http://www.w3.org/2000/svg" xmlns:xlink="http://www.w3.org/1999/xlink" x="0px" y="0px"
	 viewBox="0 0 40 40" style="enable-background:new 0 0 40 40;" xml:space="preserve">
<style type="text/css">
	.st0{stroke:#2F1F0B;stroke-miterlimit:10;}
</style>
<g>
	<path class="st0" d="M28.11,34.4c-0.35,0-0.64-0.28-0.64-0.63v-9.64c0-3.48-1.79-3.48-2.46-3.48c-1.88,0-2.83,1.17-2.83,3.48v9.64
		c0,0.35-0.28,0.63-0.63,0.63H16.1c-0.35,0-0.63-0.28-0.63-0.63V15.41c0-0.35,0.28-0.63,0.63-0.63h5.45c0.35,0,0.63,0.28,0.63,0.63
		v0.68l0.33-0.27c1.29-1.07,2.83-1.61,4.57-1.61c2.16,0,3.97,0.69,5.25,1.99c1.35,1.38,2.06,3.43,2.06,5.93v11.62
		c0,0.35-0.28,0.63-0.63,0.63L28.11,34.4L28.11,34.4z M25.01,19.38c1.39,0,3.73,0.62,3.73,4.75v9h4.39V22.14
		c0-4.23-2.2-6.66-6.04-6.66c-3.43,0-4.92,2.59-4.98,2.7c-0.11,0.2-0.32,0.33-0.56,0.33c-0.05,0-0.1-0.01-0.16-0.02
		c-0.28-0.07-0.48-0.32-0.48-0.61v-1.84h-4.18v17.09h4.18v-9C20.92,21.15,22.45,19.38,25.01,19.38L25.01,19.38z"/>
	<path class="st0" d="M6.78,34.4c-0.35,0-0.63-0.28-0.63-0.63V15.41c0-0.35,0.28-0.63,0.64-0.63h5.68c0.35,0,0.63,0.28,0.63,0.63
		v18.36c0,0.35-0.28,0.63-0.63,0.63C12.47,34.4,6.78,34.4,6.78,34.4z M7.41,33.13h4.41V16.05H7.41V33.13z"/>
	<path class="st0" d="M9.6,13.64c-2.2,0-4-1.8-4-4.02c0-2.22,1.79-4.02,4-4.02c2.2,0,3.99,1.8,3.99,4.02
		C13.59,11.84,11.8,13.64,9.6,13.64L9.6,13.64z M9.6,6.87c-1.5,0-2.73,1.23-2.73,2.75c0,1.52,1.22,2.75,2.73,2.75
		c1.5,0,2.73-1.23,2.73-2.75C12.32,8.1,11.1,6.87,9.6,6.87L9.6,6.87z"/>
</g>
</svg>
