<?xml version="1.0" encoding="utf-8"?>
<!-- Generator: Adobe Illustrator 25.1.0, SVG Export Plug-In . SVG Version: 6.00 Build 0)  -->
<svg version="1.1" id="Capa_1" xmlns="http://www.w3.org/2000/svg" xmlns:xlink="http://www.w3.org/1999/xlink" x="0px" y="0px"
	 viewBox="0 0 250.57 250.57" style="enable-background:new 0 0 250.57 250.57;" xml:space="preserve">
<style type="text/css">
	.st0{fill:#2F220D;stroke:#36250E;stroke-miterlimit:10;}
</style>
<path class="st0" d="M23.03,220.29h204.51c12.7,0,23.03-10.33,23.03-23.03V53.32c0-12.7-10.33-23.03-23.03-23.03H23.03
	C10.33,30.28,0,40.62,0,53.32v143.93C0,209.95,10.33,220.29,23.03,220.29z M15,53.32c0-4.44,3.6-8.03,8.03-8.03h204.51
	c4.43,0,8.03,3.6,8.03,8.03v143.93c0,4.44-3.6,8.03-8.03,8.03H23.03c-4.43,0-8.03-3.6-8.03-8.03V53.32z M44.74,194.68h-15V56.53
	l93.67,60.81c1.1,0.71,2.64,0.72,3.75,0l93.67-60.81v138.15h-15V84.15l-70.51,45.77c-2.99,1.94-6.46,2.97-10.04,2.97
	s-7.05-1.02-10.04-2.96L44.74,84.15V194.68z"/>
</svg>
